<?xml version="1.0" encoding="UTF-8"?>
<svg xmlns="http://www.w3.org/2000/svg" xmlns:xlink="http://www.w3.org/1999/xlink" id="Calque_1" viewBox="0 0 528.26 919.45">
  <defs>
    <style>.cls-1,.cls-2,.cls-3,.cls-4{fill:none;}.cls-2{clip-path:url(#clippath-1);}.cls-5{fill:#f5adaa;}.cls-6{fill:#f69f1d;}.cls-7{fill:#fbd8d5;}.cls-8{fill:#fce1de;}.cls-9{fill:#fff;}.cls-10{fill:#fcd198;}.cls-11{fill:#e52713;}.cls-12{fill:#5f5e5e;}.cls-3{stroke:#5f5e5e;stroke-miterlimit:10;stroke-width:.45px;}.cls-4{clip-path:url(#clippath);}</style>
    <clipPath id="clippath">
      <polyline class="cls-1" points="418.66 664.33 418.66 461.17 215.95 461.17 215.95 664.33 418.66 664.33"/>
    </clipPath>
    <clipPath id="clippath-1">
      <rect class="cls-1" x="40.02" y="72.04" width="215.79" height="44.79"/>
    </clipPath>
  </defs>
  <polyline class="cls-8" points="318.06 247.65 318.06 142.29 422.14 142.29 318.06 247.65"/>
  <polygon class="cls-10" points="528.26 352.92 422.91 352.92 422.91 142.29 528.26 142.29 528.26 352.92 528.26 352.92"/>
  <polygon class="cls-9" points="211.71 352.97 1 352.97 1 247.62 211.71 247.62 211.71 352.97 211.71 352.97"/>
  <polygon class="cls-11" points="211.71 352.97 211.71 351.97 2 351.97 2 248.62 210.71 248.62 210.71 352.97 211.71 352.97 211.71 351.97 211.71 352.97 212.71 352.97 212.71 246.62 0 246.62 0 353.97 212.71 353.97 212.71 352.97 211.71 352.97 211.71 352.97"/>
  <polygon class="cls-9" points="317.06 247.62 1 247.62 1 1 317.06 1 317.06 247.62 317.06 247.62"/>
  <polygon class="cls-11" points="317.06 247.62 317.06 246.62 2 246.62 2 2 316.06 2 316.06 247.62 317.06 247.62 317.06 246.62 317.06 247.62 318.06 247.62 318.06 0 0 0 0 248.62 318.06 248.62 318.06 247.62 317.06 247.62 317.06 247.62"/>
  <polyline class="cls-11" points="318.01 458.35 318.01 142.29 317.01 142.29 317.01 458.35"/>
  <polyline class="cls-11" points="323.27 458.35 323.27 142.29 322.27 142.29 322.27 458.35"/>
  <polyline class="cls-11" points="328.52 458.35 328.52 142.29 327.52 142.29 327.52 458.35"/>
  <polyline class="cls-11" points="333.78 458.35 333.78 142.29 332.78 142.29 332.78 458.35"/>
  <polyline class="cls-11" points="339.04 458.35 339.04 142.29 338.04 142.29 338.04 458.35"/>
  <polyline class="cls-11" points="344.29 458.35 344.29 142.29 343.29 142.29 343.29 458.35"/>
  <polyline class="cls-11" points="349.55 458.35 349.55 142.29 348.55 142.29 348.55 458.35"/>
  <polyline class="cls-11" points="354.81 458.35 354.81 142.29 353.81 142.29 353.81 458.35"/>
  <polyline class="cls-11" points="360.06 458.35 360.06 142.29 359.06 142.29 359.06 458.35"/>
  <polyline class="cls-11" points="365.32 458.35 365.32 142.29 364.32 142.29 364.32 458.35"/>
  <polyline class="cls-11" points="370.57 458.35 370.57 142.29 369.57 142.29 369.57 458.35"/>
  <polyline class="cls-11" points="375.83 458.35 375.83 142.29 374.83 142.29 374.83 458.35"/>
  <polyline class="cls-11" points="381.09 458.35 381.09 142.29 380.09 142.29 380.09 458.35"/>
  <polyline class="cls-11" points="386.34 458.35 386.34 142.29 385.34 142.29 385.34 458.35"/>
  <polyline class="cls-11" points="391.6 458.35 391.6 142.29 390.6 142.29 390.6 458.35"/>
  <polyline class="cls-11" points="396.86 458.35 396.86 142.29 395.86 142.29 395.86 458.35"/>
  <polyline class="cls-11" points="402.11 458.35 402.11 142.29 401.11 142.29 401.11 458.35"/>
  <polyline class="cls-11" points="407.37 458.35 407.37 142.29 406.37 142.29 406.37 458.35"/>
  <polyline class="cls-11" points="412.62 458.35 412.62 142.29 411.62 142.29 411.62 458.35"/>
  <polyline class="cls-11" points="417.88 458.35 417.88 142.29 416.88 142.29 416.88 458.35"/>
  <polyline class="cls-11" points="423.14 458.35 423.14 142.29 422.14 142.29 422.14 458.35"/>
  <polyline class="cls-11" points="212.77 352.99 212.77 247.64 211.77 247.64 211.77 352.99"/>
  <polyline class="cls-11" points="218.03 352.99 218.03 247.64 217.03 247.64 217.03 352.99"/>
  <polyline class="cls-11" points="223.29 352.99 223.29 247.64 222.29 247.64 222.29 352.99"/>
  <polyline class="cls-11" points="228.54 352.99 228.54 247.64 227.54 247.64 227.54 352.99"/>
  <polyline class="cls-11" points="233.8 352.99 233.8 247.64 232.8 247.64 232.8 352.99"/>
  <polyline class="cls-11" points="239.05 352.99 239.05 247.64 238.05 247.64 238.05 352.99"/>
  <polyline class="cls-11" points="244.31 352.99 244.31 247.64 243.31 247.64 243.31 352.99"/>
  <polyline class="cls-11" points="249.57 352.99 249.57 247.64 248.57 247.64 248.57 352.99"/>
  <polyline class="cls-11" points="254.82 352.99 254.82 247.64 253.82 247.64 253.82 352.99"/>
  <polyline class="cls-11" points="260.08 352.99 260.08 247.64 259.08 247.64 259.08 352.99"/>
  <polyline class="cls-11" points="265.34 352.99 265.34 247.64 264.34 247.64 264.34 352.99"/>
  <polyline class="cls-11" points="270.59 352.99 270.59 247.64 269.59 247.64 269.59 352.99"/>
  <polyline class="cls-11" points="275.85 352.99 275.85 247.64 274.85 247.64 274.85 352.99"/>
  <polyline class="cls-11" points="281.1 352.99 281.1 247.64 280.1 247.64 280.1 352.99"/>
  <polyline class="cls-11" points="286.36 352.99 286.36 247.64 285.36 247.64 285.36 352.99"/>
  <polyline class="cls-11" points="291.62 352.99 291.62 247.64 290.62 247.64 290.62 352.99"/>
  <polyline class="cls-11" points="296.87 352.99 296.87 247.64 295.87 247.64 295.87 352.99"/>
  <polyline class="cls-11" points="302.13 352.99 302.13 247.64 301.13 247.64 301.13 352.99"/>
  <polyline class="cls-11" points="307.39 352.99 307.39 247.64 306.39 247.64 306.39 352.99"/>
  <polyline class="cls-11" points="312.64 352.99 312.64 247.64 311.64 247.64 311.64 352.99"/>
  <polyline class="cls-11" points="318.06 354.96 318.06 247.64 317.06 247.64 317.06 354.96"/>
  <polyline class="cls-11" points="423.14 352.99 423.14 247.64 422.14 247.64 422.14 352.99"/>
  <polyline class="cls-6" points="3 774.9 3 669.55 2 669.55 2 774.9"/>
  <polyline class="cls-6" points="8.22 774.9 8.22 669.55 7.22 669.55 7.22 774.9"/>
  <polyline class="cls-6" points="13.44 774.9 13.44 669.55 12.44 669.55 12.44 774.9"/>
  <polyline class="cls-6" points="18.65 774.9 18.65 669.55 17.65 669.55 17.65 774.9"/>
  <polyline class="cls-6" points="23.87 774.9 23.87 669.55 22.87 669.55 22.87 774.9"/>
  <polyline class="cls-6" points="29.09 774.9 29.09 669.55 28.09 669.55 28.09 774.9"/>
  <polyline class="cls-6" points="34.31 774.9 34.31 669.55 33.31 669.55 33.31 774.9"/>
  <polyline class="cls-6" points="39.52 774.9 39.52 669.55 38.52 669.55 38.52 774.9"/>
  <polyline class="cls-6" points="44.74 774.9 44.74 669.55 43.74 669.55 43.74 774.9"/>
  <polyline class="cls-6" points="49.96 774.9 49.96 669.55 48.96 669.55 48.96 774.9"/>
  <polyline class="cls-6" points="55.18 774.9 55.18 669.55 54.18 669.55 54.18 774.9"/>
  <polyline class="cls-6" points="60.39 774.9 60.39 669.55 59.39 669.55 59.39 774.9"/>
  <polyline class="cls-6" points="65.61 774.9 65.61 669.55 64.61 669.55 64.61 774.9"/>
  <polyline class="cls-6" points="70.83 774.9 70.83 669.55 69.83 669.55 69.83 774.9"/>
  <polyline class="cls-6" points="76.05 774.9 76.05 669.55 75.05 669.55 75.05 774.9"/>
  <polyline class="cls-6" points="81.26 774.9 81.26 669.55 80.26 669.55 80.26 774.9"/>
  <polyline class="cls-6" points="86.48 774.9 86.48 669.55 85.48 669.55 85.48 774.9"/>
  <polyline class="cls-6" points="91.7 774.9 91.7 669.55 90.7 669.55 90.7 774.9"/>
  <polyline class="cls-6" points="96.92 774.9 96.92 669.55 95.92 669.55 95.92 774.9"/>
  <polyline class="cls-6" points="102.14 774.9 102.14 669.55 101.14 669.55 101.14 774.9"/>
  <polyline class="cls-6" points="107.35 774.9 107.35 669.55 106.35 669.55 106.35 774.9"/>
  <polyline class="cls-6" points="423.91 669.05 423.91 563.7 422.91 563.7 422.91 669.05"/>
  <polyline class="cls-6" points="453.72 669.05 453.72 563.7 452.72 563.7 452.72 669.05"/>
  <polyline class="cls-6" points="483.54 669.05 483.54 563.7 482.54 563.7 482.54 669.05"/>
  <polyline class="cls-6" points="513.35 669.05 513.35 563.7 512.35 563.7 512.35 669.05"/>
  <polyline class="cls-6" points="438.82 669.05 438.82 563.7 437.82 563.7 437.82 669.05"/>
  <polyline class="cls-6" points="468.63 669.05 468.63 563.7 467.63 563.7 467.63 669.05"/>
  <polyline class="cls-6" points="498.45 669.05 498.45 563.7 497.45 563.7 497.45 669.05"/>
  <polyline class="cls-6" points="528.26 669.05 528.26 563.7 527.26 563.7 527.26 669.05"/>
  <polygon class="cls-10" points="212.7 774.9 107.35 774.9 107.35 669.55 212.7 669.55 212.7 774.9 212.7 774.9"/>
  <polygon class="cls-7" points="2 564.2 107.35 564.2 2 669.55 2 564.2 2 564.2"/>
  <g class="cls-4">
    <path class="cls-5" d="m477.38,919.45v-7.83h-.81v7.83h.81Zm3.51-4.32h-7.83v.81h7.83v-.81Zm-35.46,4.32v-7.83h-.81v7.83h.81Zm3.51-4.32h-7.83v.81h7.83v-.81Zm-35.46,4.32v-7.83h-.81v7.83h.81Zm3.51-4.32h-7.83v.81h7.83v-.81Zm-35.46,4.32v-7.83h-.81v7.83h.81Zm3.51-4.32h-7.83v.81h7.83v-.81Zm-35.46,4.32v-7.83h-.81v7.83h.81Zm3.51-4.32h-7.83v.81h7.83v-.81Zm-35.46,4.32v-7.83h-.81v7.83h.81Zm3.51-4.32h-7.83v.81h7.83v-.81Zm-35.46,4.32v-7.83h-.81v7.83h.81Zm3.51-4.32h-7.83v.81h7.83v-.81Zm-35.46,4.32v-7.83h-.81v7.83h.81Zm3.51-4.32h-7.83v.81h7.83v-.81Zm-35.46,4.32v-7.83h-.81v7.83h.81Zm3.51-4.32h-7.83v.81h7.83v-.81Zm-35.46,4.32v-7.83h-.81v7.83h.81Zm3.51-4.32h-7.83v.81h7.83v-.81Zm284.04-27.63v-7.83h-.81v7.83h.81Zm3.51-4.32h-7.83v.81h7.83v-.81Zm-35.46,4.32v-7.83h-.81v7.83h.81Zm3.51-4.32h-7.83v.81h7.83v-.81Zm-35.46,4.32v-7.83h-.81v7.83h.81Zm3.51-4.32h-7.83v.81h7.83v-.81Zm-35.46,4.32v-7.83h-.81v7.83h.81Zm3.51-4.32h-7.83v.81h7.83v-.81Zm-35.46,4.32v-7.83h-.81v7.83h.81Zm3.51-4.32h-7.83v.81h7.83v-.81Zm-35.46,4.32v-7.83h-.81v7.83h.81Zm3.51-4.32h-7.83v.81h7.83v-.81Zm-35.46,4.32v-7.83h-.81v7.83h.81Zm3.51-4.32h-7.83v.81h7.83v-.81Zm-35.46,4.32v-7.83h-.81v7.83h.81Zm3.51-4.32h-7.83v.81h7.83v-.81Zm-35.46,4.32v-7.83h-.81v7.83h.81Zm3.51-4.32h-7.83v.81h7.83v-.81Zm-35.46,4.32v-7.83h-.81v7.83h.81Zm3.51-4.32h-7.83v.81h7.83v-.81Zm284.04-27.63v-7.83h-.81v7.83h.81Zm3.51-4.32h-7.83v.81h7.83v-.81Zm-35.46,4.32v-7.83h-.81v7.83h.81Zm3.51-4.32h-7.83v.81h7.83v-.81Zm-35.46,4.32v-7.83h-.81v7.83h.81Zm3.51-4.32h-7.83v.81h7.83v-.81Zm-35.46,4.32v-7.83h-.81v7.83h.81Zm3.51-4.32h-7.83v.81h7.83v-.81Zm-35.46,4.32v-7.83h-.81v7.83h.81Zm3.51-4.32h-7.83v.81h7.83v-.81Zm-35.46,4.32v-7.83h-.81v7.83h.81Zm3.51-4.32h-7.83v.81h7.83v-.81Zm-35.46,4.32v-7.83h-.81v7.83h.81Zm3.51-4.32h-7.83v.81h7.83v-.81Zm-35.46,4.32v-7.83h-.81v7.83h.81Zm3.51-4.32h-7.83v.81h7.83v-.81Zm-35.46,4.32v-7.83h-.81v7.83h.81Zm3.51-4.32h-7.83v.81h7.83v-.81Zm-35.46,4.32v-7.83h-.81v7.83h.81Zm3.51-4.32h-7.83v.81h7.83v-.81Zm284.04-27.63v-7.83h-.81v7.83h.81Zm3.51-4.32h-7.83v.81h7.83v-.81Zm-35.46,4.32v-7.83h-.81v7.83h.81Zm3.51-4.32h-7.83v.81h7.83v-.81Zm-35.46,4.32v-7.83h-.81v7.83h.81Zm3.51-4.32h-7.83v.81h7.83v-.81Zm-35.46,4.32v-7.83h-.81v7.83h.81Zm3.51-4.32h-7.83v.81h7.83v-.81Zm-35.46,4.32v-7.83h-.81v7.83h.81Zm3.51-4.32h-7.83v.81h7.83v-.81Zm-35.46,4.32v-7.83h-.81v7.83h.81Zm3.51-4.32h-7.83v.81h7.83v-.81Zm-35.46,4.32v-7.83h-.81v7.83h.81Zm3.51-4.32h-7.83v.81h7.83v-.81Zm-35.46,4.32v-7.83h-.81v7.83h.81Zm3.51-4.32h-7.83v.81h7.83v-.81Zm-35.46,4.32v-7.83h-.81v7.83h.81Zm3.51-4.32h-7.83v.81h7.83v-.81Zm-35.46,4.32v-7.83h-.81v7.83h.81Zm3.51-4.32h-7.83v.81h7.83v-.81Zm284.04-27.63v-7.83h-.81v7.83h.81Zm3.51-4.32h-7.83v.81h7.83v-.81Zm-35.46,4.32v-7.83h-.81v7.83h.81Zm3.51-4.32h-7.83v.81h7.83v-.81Zm-35.46,4.32v-7.83h-.81v7.83h.81Zm3.51-4.32h-7.83v.81h7.83v-.81Zm-35.46,4.32v-7.83h-.81v7.83h.81Zm3.51-4.32h-7.83v.81h7.83v-.81Zm-35.46,4.32v-7.83h-.81v7.83h.81Zm3.51-4.32h-7.83v.81h7.83v-.81Zm-35.46,4.32v-7.83h-.81v7.83h.81Zm3.51-4.32h-7.83v.81h7.83v-.81Zm-35.46,4.32v-7.83h-.81v7.83h.81Zm3.51-4.32h-7.83v.81h7.83v-.81Zm-35.46,4.32v-7.83h-.81v7.83h.81Zm3.51-4.32h-7.83v.81h7.83v-.81Zm-35.46,4.32v-7.83h-.81v7.83h.81Zm3.51-4.32h-7.83v.81h7.83v-.81Zm-35.46,4.32v-7.83h-.81v7.83h.81Zm3.51-4.32h-7.83v.81h7.83v-.81Zm284.04-27.63v-7.83h-.81v7.83h.81Zm3.51-4.32h-7.83v.81h7.83v-.81Zm-35.46,4.32v-7.83h-.81v7.83h.81Zm3.51-4.32h-7.83v.81h7.83v-.81Zm-35.46,4.32v-7.83h-.81v7.83h.81Zm3.51-4.32h-7.83v.81h7.83v-.81Zm-35.46,4.32v-7.83h-.81v7.83h.81Zm3.51-4.32h-7.83v.81h7.83v-.81Zm-35.46,4.32v-7.83h-.81v7.83h.81Zm3.51-4.32h-7.83v.81h7.83v-.81Zm-35.46,4.32v-7.83h-.81v7.83h.81Zm3.51-4.32h-7.83v.81h7.83v-.81Zm-35.46,4.32v-7.83h-.81v7.83h.81Zm3.51-4.32h-7.83v.81h7.83v-.81Zm-35.46,4.32v-7.83h-.81v7.83h.81Zm3.51-4.32h-7.83v.81h7.83v-.81Zm-35.46,4.32v-7.83h-.81v7.83h.81Zm3.51-4.32h-7.83v.81h7.83v-.81Zm-35.46,4.32v-7.83h-.81v7.83h.81Zm3.51-4.32h-7.83v.81h7.83v-.81Zm284.04-27.63v-7.83h-.81v7.83h.81Zm3.51-4.32h-7.83v.81h7.83v-.81Zm-35.46,4.32v-7.83h-.81v7.83h.81Zm3.51-4.32h-7.83v.81h7.83v-.81Zm-35.46,4.32v-7.83h-.81v7.83h.81Zm3.51-4.32h-7.83v.81h7.83v-.81Zm-35.46,4.32v-7.83h-.81v7.83h.81Zm3.51-4.32h-7.83v.81h7.83v-.81Zm-35.46,4.32v-7.83h-.81v7.83h.81Zm3.51-4.32h-7.83v.81h7.83v-.81Zm-35.46,4.32v-7.83h-.81v7.83h.81Zm3.51-4.32h-7.83v.81h7.83v-.81Zm-35.46,4.32v-7.83h-.81v7.83h.81Zm3.51-4.32h-7.83v.81h7.83v-.81Zm-35.46,4.32v-7.83h-.81v7.83h.81Zm3.51-4.32h-7.83v.81h7.83v-.81Zm-35.46,4.32v-7.83h-.81v7.83h.81Zm3.51-4.32h-7.83v.81h7.83v-.81Zm-35.46,4.32v-7.83h-.81v7.83h.81Zm3.51-4.32h-7.83v.81h7.83v-.81Zm284.04-27.63v-7.83h-.81v7.83h.81Zm3.51-4.32h-7.83v.81h7.83v-.81Zm-35.46,4.32v-7.83h-.81v7.83h.81Zm3.51-4.32h-7.83v.81h7.83v-.81Zm-35.46,4.32v-7.83h-.81v7.83h.81Zm3.51-4.32h-7.83v.81h7.83v-.81Zm-35.46,4.32v-7.83h-.81v7.83h.81Zm3.51-4.32h-7.83v.81h7.83v-.81Zm-35.46,4.32v-7.83h-.81v7.83h.81Zm3.51-4.32h-7.83v.81h7.83v-.81Zm-35.46,4.32v-7.83h-.81v7.83h.81Zm3.51-4.32h-7.83v.81h7.83v-.81Zm-35.46,4.32v-7.83h-.81v7.83h.81Zm3.51-4.32h-7.83v.81h7.83v-.81Zm-35.46,4.32v-7.83h-.81v7.83h.81Zm3.51-4.32h-7.83v.81h7.83v-.81Zm-35.46,4.32v-7.83h-.81v7.83h.81Zm3.51-4.32h-7.83v.81h7.83v-.81Zm-35.46,4.32v-7.83h-.81v7.83h.81Zm3.51-4.32h-7.83v.81h7.83v-.81Zm284.04-27.63v-7.83h-.81v7.83h.81Zm3.51-4.32h-7.83v.81h7.83v-.81Zm-35.46,4.32v-7.83h-.81v7.83h.81Zm3.51-4.32h-7.83v.81h7.83v-.81Zm-35.46,4.32v-7.83h-.81v7.83h.81Zm3.51-4.32h-7.83v.81h7.83v-.81Zm-35.46,4.32v-7.83h-.81v7.83h.81Zm3.51-4.32h-7.83v.81h7.83v-.81Zm-35.46,4.32v-7.83h-.81v7.83h.81Zm3.51-4.32h-7.83v.81h7.83v-.81Zm-35.46,4.32v-7.83h-.81v7.83h.81Zm3.51-4.32h-7.83v.81h7.83v-.81Zm-35.46,4.32v-7.83h-.81v7.83h.81Zm3.51-4.32h-7.83v.81h7.83v-.81Zm-35.46,4.32v-7.83h-.81v7.83h.81Zm3.51-4.32h-7.83v.81h7.83v-.81Zm-35.46,4.32v-7.83h-.81v7.83h.81Zm3.51-4.32h-7.83v.81h7.83v-.81Zm-35.46,4.32v-7.83h-.81v7.83h.81Zm3.51-4.32h-7.83v.81h7.83v-.81Zm284.04-27.63v-7.83h-.81v7.83h.81Zm3.51-4.32h-7.83v.81h7.83v-.81Zm-35.46,4.32v-7.83h-.81v7.83h.81Zm3.51-4.32h-7.83v.81h7.83v-.81Zm-35.46,4.32v-7.83h-.81v7.83h.81Zm3.51-4.32h-7.83v.81h7.83v-.81Zm-35.46,4.32v-7.83h-.81v7.83h.81Zm3.51-4.32h-7.83v.81h7.83v-.81Zm-35.46,4.32v-7.83h-.81v7.83h.81Zm3.51-4.32h-7.83v.81h7.83v-.81Zm-35.46,4.32v-7.83h-.81v7.83h.81Zm3.51-4.32h-7.83v.81h7.83v-.81Zm-35.46,4.32v-7.83h-.81v7.83h.81Zm3.51-4.32h-7.83v.81h7.83v-.81Zm-35.46,4.32v-7.83h-.81v7.83h.81Zm3.51-4.32h-7.83v.81h7.83v-.81Zm-35.46,4.32v-7.83h-.81v7.83h.81Zm3.51-4.32h-7.83v.81h7.83v-.81Zm-35.46,4.32v-7.83h-.81v7.83h.81Zm3.51-4.32h-7.83v.81h7.83v-.81Z"/>
    <path class="cls-5" d="m477.38,599.96v-7.83h-.81v7.83h.81Zm3.51-4.32h-7.83v.81h7.83v-.81Zm-35.46,4.32v-7.83h-.81v7.83h.81Zm3.51-4.32h-7.83v.81h7.83v-.81Zm-35.46,4.32v-7.83h-.81v7.83h.81Zm3.51-4.32h-7.83v.81h7.83v-.81Zm-35.46,4.32v-7.83h-.81v7.83h.81Zm3.51-4.32h-7.83v.81h7.83v-.81Zm-35.46,4.32v-7.83h-.81v7.83h.81Zm3.51-4.32h-7.83v.81h7.83v-.81Zm-35.46,4.32v-7.83h-.81v7.83h.81Zm3.51-4.32h-7.83v.81h7.83v-.81Zm-35.46,4.32v-7.83h-.81v7.83h.81Zm3.51-4.32h-7.83v.81h7.83v-.81Zm-35.46,4.32v-7.83h-.81v7.83h.81Zm3.51-4.32h-7.83v.81h7.83v-.81Zm-35.46,4.32v-7.83h-.81v7.83h.81Zm3.51-4.32h-7.83v.81h7.83v-.81Zm-35.46,4.32v-7.83h-.81v7.83h.81Zm3.51-4.32h-7.83v.81h7.83v-.81Zm284.04-27.63v-7.83h-.81v7.83h.81Zm3.51-4.32h-7.83v.81h7.83v-.81Zm-35.46,4.32v-7.83h-.81v7.83h.81Zm3.51-4.32h-7.83v.81h7.83v-.81Zm-35.46,4.32v-7.83h-.81v7.83h.81Zm3.51-4.32h-7.83v.81h7.83v-.81Zm-35.46,4.32v-7.83h-.81v7.83h.81Zm3.51-4.32h-7.83v.81h7.83v-.81Zm-35.46,4.32v-7.83h-.81v7.83h.81Zm3.51-4.32h-7.83v.81h7.83v-.81Zm-35.46,4.32v-7.83h-.81v7.83h.81Zm3.51-4.32h-7.83v.81h7.83v-.81Zm-35.46,4.32v-7.83h-.81v7.83h.81Zm3.51-4.32h-7.83v.81h7.83v-.81Zm-35.46,4.32v-7.83h-.81v7.83h.81Zm3.51-4.32h-7.83v.81h7.83v-.81Zm-35.46,4.32v-7.83h-.81v7.83h.81Zm3.51-4.32h-7.83v.81h7.83v-.81Zm-35.46,4.32v-7.83h-.81v7.83h.81Zm3.51-4.32h-7.83v.81h7.83v-.81Zm284.04-27.63v-7.83h-.81v7.83h.81Zm3.51-4.32h-7.83v.81h7.83v-.81Zm-35.46,4.32v-7.83h-.81v7.83h.81Zm3.51-4.32h-7.83v.81h7.83v-.81Zm-35.46,4.32v-7.83h-.81v7.83h.81Zm3.51-4.32h-7.83v.81h7.83v-.81Zm-35.46,4.32v-7.83h-.81v7.83h.81Zm3.51-4.32h-7.83v.81h7.83v-.81Zm-35.46,4.32v-7.83h-.81v7.83h.81Zm3.51-4.32h-7.83v.81h7.83v-.81Zm-35.46,4.32v-7.83h-.81v7.83h.81Zm3.51-4.32h-7.83v.81h7.83v-.81Zm-35.46,4.32v-7.83h-.81v7.83h.81Zm3.51-4.32h-7.83v.81h7.83v-.81Zm-35.46,4.32v-7.83h-.81v7.83h.81Zm3.51-4.32h-7.83v.81h7.83v-.81Zm-35.46,4.32v-7.83h-.81v7.83h.81Zm3.51-4.32h-7.83v.81h7.83v-.81Zm-35.46,4.32v-7.83h-.81v7.83h.81Zm3.51-4.32h-7.83v.81h7.83v-.81Zm284.04-27.63v-7.83h-.81v7.83h.81Zm3.51-4.32h-7.83v.81h7.83v-.81Zm-35.46,4.32v-7.83h-.81v7.83h.81Zm3.51-4.32h-7.83v.81h7.83v-.81Zm-35.46,4.32v-7.83h-.81v7.83h.81Zm3.51-4.32h-7.83v.81h7.83v-.81Zm-35.46,4.32v-7.83h-.81v7.83h.81Zm3.51-4.32h-7.83v.81h7.83v-.81Zm-35.46,4.32v-7.83h-.81v7.83h.81Zm3.51-4.32h-7.83v.81h7.83v-.81Zm-35.46,4.32v-7.83h-.81v7.83h.81Zm3.51-4.32h-7.83v.81h7.83v-.81Zm-35.46,4.32v-7.83h-.81v7.83h.81Zm3.51-4.32h-7.83v.81h7.83v-.81Zm-35.46,4.32v-7.83h-.81v7.83h.81Zm3.51-4.32h-7.83v.81h7.83v-.81Zm-35.46,4.32v-7.83h-.81v7.83h.81Zm3.51-4.32h-7.83v.81h7.83v-.81Zm-35.46,4.32v-7.83h-.81v7.83h.81Zm3.51-4.32h-7.83v.81h7.83v-.81Zm284.04-27.63v-7.83h-.81v7.83h.81Zm3.51-4.32h-7.83v.81h7.83v-.81Zm-35.46,4.32v-7.83h-.81v7.83h.81Zm3.51-4.32h-7.83v.81h7.83v-.81Zm-35.46,4.32v-7.83h-.81v7.83h.81Zm3.51-4.32h-7.83v.81h7.83v-.81Zm-35.46,4.32v-7.83h-.81v7.83h.81Zm3.51-4.32h-7.83v.81h7.83v-.81Zm-35.46,4.32v-7.83h-.81v7.83h.81Zm3.51-4.32h-7.83v.81h7.83v-.81Zm-35.46,4.32v-7.83h-.81v7.83h.81Zm3.51-4.32h-7.83v.81h7.83v-.81Zm-35.46,4.32v-7.83h-.81v7.83h.81Zm3.51-4.32h-7.83v.81h7.83v-.81Zm-35.46,4.32v-7.83h-.81v7.83h.81Zm3.51-4.32h-7.83v.81h7.83v-.81Zm-35.46,4.32v-7.83h-.81v7.83h.81Zm3.51-4.32h-7.83v.81h7.83v-.81Zm-35.46,4.32v-7.83h-.81v7.83h.81Zm3.51-4.32h-7.83v.81h7.83v-.81Z"/>
  </g>
  <polygon class="cls-11" points="213.53 457.34 318.06 457.34 318.06 353.49 213.53 457.34 213.53 457.34"/>
  <polygon class="cls-9" points="2 245.14 2 351.96 210.7 351.96 210.7 245.14 2 245.14 2 245.14"/>
  <polygon class="cls-12" points="143.82 72.87 151.49 72.87 151.49 105.36 143.82 72.87 143.82 72.87"/>
  <polygon class="cls-11" points="51.35 72.89 51.35 116.16 40.02 116.16 40.02 72.89 51.35 72.89 51.35 72.89"/>
  <polygon class="cls-11" points="67.11 72.89 74.42 99.56 74.54 99.56 74.54 72.89 85.13 72.89 85.13 116.16 72.71 116.16 65.17 89.44 65.04 89.44 65.04 116.16 54.45 116.16 54.45 72.89 67.11 72.89 67.11 72.89"/>
  <path class="cls-11" d="m105.59,84.35c0-1.29-.27-2.4-.8-3.3-.52-.91-1.34-1.37-2.43-1.37-1.22,0-2.11.4-2.68,1.18-.57.79-.85,1.67-.85,2.64,0,1.42.45,2.54,1.37,3.37.91.83,2.06,1.54,3.43,2.15,1.38.61,2.87,1.22,4.45,1.85,1.58.63,3.07,1.44,4.44,2.46,1.38,1.01,2.53,2.33,3.44,3.97.91,1.63,1.37,3.76,1.37,6.39,0,4.61-1.32,7.95-3.96,10.03-2.64,2.08-6.45,3.13-11.45,3.13-2.35,0-4.44-.2-6.24-.58-1.81-.38-3.33-1.05-4.56-2-1.24-.95-2.18-2.19-2.83-3.73-.65-1.53-.97-3.43-.97-5.7v-1.52h10.95v1.03c0,1.86.35,3.16,1.04,3.91.69.75,1.58,1.13,2.68,1.13,1.18,0,2.07-.41,2.71-1.22.63-.8.95-1.79.95-2.97,0-1.41-.44-2.53-1.32-3.36-.87-.83-1.97-1.53-3.28-2.12-1.32-.58-2.75-1.18-4.29-1.79-1.54-.6-2.98-1.39-4.3-2.36-1.31-.97-2.41-2.24-3.28-3.82-.88-1.57-1.31-3.63-1.31-6.18,0-4.4,1.17-7.76,3.53-10.06s5.92-3.45,10.71-3.45,8.53,1.06,10.74,3.18c2.21,2.13,3.32,5.51,3.32,10.15h-10.59v-1.03h0Z"/>
  <path class="cls-11" d="m133.71,81.74l-3.11,18.36h6.33l-3.11-18.36h-.12Zm7.18-8.85l10.59,43.27h-12.05l-1.16-7.57h-9.01l-1.16,7.57h-11.87l10.41-43.27h14.25Z"/>
  <g class="cls-2">
    <line class="cls-3" x1="161.06" y1="72.85" x2="161.06" y2="116.13"/>
  </g>
  <polygon class="cls-12" points="170.91 72.95 171.54 72.95 171.54 79.99 170.91 79.99 170.91 72.95 170.91 72.95"/>
  <polygon class="cls-12" points="172.88 72.95 173.73 72.95 176.42 79.08 176.44 79.08 176.44 72.95 177.07 72.95 177.07 79.99 176.22 79.99 173.53 73.86 173.51 73.86 173.51 79.99 172.88 79.99 172.88 72.95 172.88 72.95"/>
  <path class="cls-12" d="m181.46,74.75c0-.87-.4-1.39-1.26-1.39s-1.33.56-1.33,1.26c0,2.1,3.41.95,3.41,3.42,0,1.36-.85,2.06-2.13,2.06s-2.05-.71-2.05-2.09v-.21h.63v.27c0,.9.47,1.5,1.4,1.5s1.52-.44,1.52-1.43c0-2.09-3.41-.9-3.41-3.45,0-1.1.72-1.86,1.94-1.86,1.31,0,1.91.67,1.91,1.92h-.63Z"/>
  <polygon class="cls-12" points="184.62 73.48 182.81 73.48 182.81 72.95 187.06 72.95 187.06 73.48 185.25 73.48 185.25 79.99 184.62 79.99 184.62 73.48 184.62 73.48"/>
  <polygon class="cls-12" points="187.91 72.95 188.54 72.95 188.54 79.99 187.91 79.99 187.91 72.95 187.91 72.95"/>
  <polygon class="cls-12" points="191.2 73.48 189.39 73.48 189.39 72.95 193.64 72.95 193.64 73.48 191.83 73.48 191.83 79.99 191.2 79.99 191.2 73.48 191.2 73.48"/>
  <path class="cls-12" d="m194.35,72.95h.63v5.05c0,1.05.45,1.57,1.38,1.57s1.38-.51,1.38-1.57v-5.05h.63v5.06c0,1.48-.72,2.09-2.01,2.09s-2.01-.61-2.01-2.09v-5.06h0Z"/>
  <polygon class="cls-12" points="200.89 73.48 199.08 73.48 199.08 72.95 203.34 72.95 203.34 73.48 201.52 73.48 201.52 79.99 200.89 79.99 200.89 73.48 200.89 73.48"/>
  <polygon class="cls-12" points="206.71 72.95 207.55 72.95 210.24 79.08 210.26 79.08 210.26 72.95 210.89 72.95 210.89 79.99 210.05 79.99 207.36 73.86 207.34 73.86 207.34 79.99 206.71 79.99 206.71 72.95 206.71 72.95"/>
  <path class="cls-12" d="m215.2,77.4l-1.08-3.96h-.02l-1.08,3.96h2.19Zm-1.49-4.45h.79l2.08,7.04h-.67l-.57-2.05h-2.46l-.57,2.05h-.67l2.08-7.04h0Z"/>
  <polygon class="cls-12" points="218.1 73.48 216.28 73.48 216.28 72.95 220.54 72.95 220.54 73.48 218.73 73.48 218.73 79.99 218.1 79.99 218.1 73.48 218.1 73.48"/>
  <polygon class="cls-12" points="221.39 72.95 222.02 72.95 222.02 79.99 221.39 79.99 221.39 72.95 221.39 72.95"/>
  <path class="cls-12" d="m225.54,79.57c1.01,0,1.62-.83,1.62-3.1s-.61-3.1-1.62-3.1-1.62.83-1.62,3.1.61,3.1,1.62,3.1h0Zm0-6.74c1.44,0,2.25,1.11,2.25,3.64s-.81,3.64-2.25,3.64-2.25-1.11-2.25-3.64.81-3.64,2.25-3.64h0Z"/>
  <polygon class="cls-12" points="229.03 72.95 229.88 72.95 232.57 79.08 232.59 79.08 232.59 72.95 233.22 72.95 233.22 79.99 232.37 79.99 229.68 73.86 229.66 73.86 229.66 79.99 229.03 79.99 229.03 72.95 229.03 72.95"/>
  <path class="cls-12" d="m237.52,77.4l-1.08-3.96h-.02l-1.08,3.96h2.19Zm-1.49-4.45h.79l2.08,7.04h-.67l-.57-2.05h-2.46l-.57,2.05h-.67l2.08-7.04h0Z"/>
  <polygon class="cls-12" points="239.64 72.95 240.27 72.95 240.27 79.45 243.19 79.45 243.19 79.99 239.64 79.99 239.64 72.95 239.64 72.95"/>
  <path class="cls-12" d="m171.5,91.49h1.03c1.38,0,1.96-.69,1.96-2.98s-.58-3-1.96-3h-1.03v5.97h0Zm-.63-6.5h1.7c2.05,0,2.55,1.22,2.55,3.52s-.5,3.52-2.55,3.52h-1.7v-7.04h0Z"/>
  <polygon class="cls-12" points="176.36 84.99 179.85 84.99 179.85 85.52 176.99 85.52 176.99 88.09 179.66 88.09 179.66 88.62 176.99 88.62 176.99 91.49 179.94 91.49 179.94 92.03 176.36 92.03 176.36 84.99 176.36 84.99"/>
  <path class="cls-12" d="m184.02,86.79c0-.87-.4-1.39-1.26-1.39s-1.33.56-1.33,1.26c0,2.1,3.41.95,3.41,3.42,0,1.36-.85,2.06-2.13,2.06s-2.05-.71-2.05-2.09v-.21h.63v.27c0,.9.47,1.5,1.4,1.5s1.52-.44,1.52-1.43c0-2.09-3.41-.9-3.41-3.45,0-1.1.72-1.86,1.94-1.86,1.31,0,1.91.67,1.91,1.92h-.63Z"/>
  <path class="cls-12" d="m191.51,86.79c0-.87-.4-1.39-1.26-1.39s-1.33.56-1.33,1.26c0,2.1,3.41.95,3.41,3.42,0,1.36-.85,2.06-2.13,2.06s-2.05-.71-2.05-2.09v-.21h.63v.27c0,.9.47,1.5,1.4,1.5s1.52-.44,1.52-1.43c0-2.09-3.41-.9-3.41-3.45,0-1.1.72-1.86,1.94-1.86,1.31,0,1.91.67,1.91,1.92h-.63Z"/>
  <path class="cls-12" d="m197.62,89.64c-.09,1.61-.83,2.5-2.09,2.5-1.44,0-2.25-1.11-2.25-3.64s.81-3.64,2.25-3.64,2.02,1.01,2.02,2.17h-.63c0-.96-.48-1.64-1.39-1.64-1,0-1.62.83-1.62,3.1s.61,3.1,1.62,3.1c.89,0,1.39-.76,1.46-1.97h.63Z"/>
  <polygon class="cls-12" points="198.7 84.99 199.33 84.99 199.33 92.03 198.7 92.03 198.7 84.99 198.7 84.99"/>
  <polygon class="cls-12" points="200.67 84.99 204.16 84.99 204.16 85.52 201.3 85.52 201.3 88.09 203.97 88.09 203.97 88.62 201.3 88.62 201.3 91.49 204.24 91.49 204.24 92.03 200.67 92.03 200.67 84.99 200.67 84.99"/>
  <polygon class="cls-12" points="205.24 84.99 206.09 84.99 208.78 91.12 208.8 91.12 208.8 84.99 209.43 84.99 209.43 92.03 208.58 92.03 205.89 85.9 205.87 85.9 205.87 92.03 205.24 92.03 205.24 84.99 205.24 84.99"/>
  <path class="cls-12" d="m215,89.64c-.09,1.61-.83,2.5-2.09,2.5-1.44,0-2.25-1.11-2.25-3.64s.81-3.64,2.25-3.64,2.02,1.01,2.02,2.17h-.63c0-.96-.48-1.64-1.39-1.64-1,0-1.62.83-1.62,3.1s.61,3.1,1.62,3.1c.89,0,1.39-.76,1.46-1.97h.63Z"/>
  <polygon class="cls-12" points="216.04 84.99 219.52 84.99 219.52 85.52 216.67 85.52 216.67 88.09 219.34 88.09 219.34 88.62 216.67 88.62 216.67 91.49 219.61 91.49 219.61 92.03 216.04 92.03 216.04 84.99 216.04 84.99"/>
  <path class="cls-12" d="m223.69,86.79c0-.87-.4-1.39-1.26-1.39s-1.33.56-1.33,1.26c0,2.1,3.41.95,3.41,3.42,0,1.36-.85,2.06-2.13,2.06s-2.05-.71-2.05-2.09v-.21h.63v.27c0,.9.47,1.5,1.4,1.5s1.52-.44,1.52-1.43c0-2.09-3.41-.9-3.41-3.45,0-1.1.72-1.86,1.94-1.86,1.31,0,1.91.67,1.91,1.92h-.63Z"/>
  <path class="cls-12" d="m173.88,101.49l-1.08-3.96h-.02l-1.08,3.96h2.19Zm-1.49-4.45h.79l2.08,7.04h-.67l-.57-2.05h-2.46l-.57,2.05h-.67l2.08-7.04h0Z"/>
  <path class="cls-12" d="m176.63,100.48h1.07c.84,0,1.5-.37,1.5-1.46s-.53-1.46-1.5-1.46h-1.07v2.92h0Zm-.63-3.45h1.9c1.36,0,1.93.8,1.93,1.99,0,1.08-.54,1.99-2.15,1.99h-1.05v3.05h-.63v-7.04h0Z"/>
  <path class="cls-12" d="m181.55,100.48h1.07c.84,0,1.5-.37,1.5-1.46s-.53-1.46-1.5-1.46h-1.07v2.92h0Zm-.63-3.45h1.9c1.36,0,1.93.8,1.93,1.99,0,1.08-.54,1.99-2.15,1.99h-1.05v3.05h-.63v-7.04h0Z"/>
  <polygon class="cls-12" points="185.85 97.03 186.48 97.03 186.48 103.54 189.4 103.54 189.4 104.07 185.85 104.07 185.85 97.03 185.85 97.03"/>
  <polygon class="cls-12" points="190.28 97.03 190.91 97.03 190.91 104.07 190.28 104.07 190.28 97.03 190.28 97.03"/>
  <path class="cls-12" d="m194.53,102.57l.34-.37.76.74c.28-.5.42-1.28.42-2.38,0-2.28-.61-3.1-1.62-3.1s-1.62.83-1.62,3.1.61,3.1,1.62,3.1c.34,0,.63-.09.89-.32l-.8-.77h0Zm1.18,1.18c-.34.3-.77.43-1.27.43-1.44,0-2.25-1.11-2.25-3.64s.81-3.64,2.25-3.64,2.25,1.11,2.25,3.64c0,1.32-.23,2.26-.64,2.83l.72.69-.34.37-.71-.69h0Z"/>
  <path class="cls-12" d="m197.83,97.03h.63v5.05c0,1.05.45,1.57,1.38,1.57s1.38-.51,1.38-1.57v-5.05h.63v5.06c0,1.48-.72,2.09-2.01,2.09s-2.01-.61-2.01-2.09v-5.06h0Z"/>
  <path class="cls-12" d="m205.88,95.31l-.97,1.39h-.47l.74-1.39h.7Zm-2.83,1.72h3.49v.53h-2.86v2.56h2.67v.53h-2.67v2.88h2.95v.53h-3.58v-7.04h0Z"/>
  <polygon class="cls-12" points="207.62 97.03 211.11 97.03 211.11 97.57 208.25 97.57 208.25 100.13 210.92 100.13 210.92 100.66 208.25 100.66 208.25 103.54 211.2 103.54 211.2 104.07 207.62 104.07 207.62 97.03 207.62 97.03"/>
  <path class="cls-12" d="m215.28,98.84c0-.87-.4-1.39-1.26-1.39s-1.33.56-1.33,1.26c0,2.1,3.41.95,3.41,3.42,0,1.36-.85,2.06-2.13,2.06s-2.05-.71-2.05-2.09v-.21h.63v.27c0,.9.47,1.5,1.4,1.5s1.52-.44,1.52-1.43c0-2.09-3.41-.9-3.41-3.45,0-1.1.72-1.86,1.94-1.86,1.31,0,1.91.67,1.91,1.92h-.63Z"/>
  <path class="cls-12" d="m173.82,111.45c0-1.03-.21-1.47-.85-1.47-.72,0-.89.72-.89,2.71,0,2.13.3,2.51.91,2.51.51,0,.89-.27.89-1.78h1.42c0,1.52-.37,2.83-2.24,2.83-2.13,0-2.39-1.52-2.39-3.66s.27-3.65,2.39-3.65,2.18,1.49,2.18,2.51h-1.42Z"/>
  <polygon class="cls-12" points="180.04 109.08 180.04 110.24 177.52 110.24 177.52 111.89 179.89 111.89 179.89 113.06 177.52 113.06 177.52 114.95 180.14 114.95 180.14 116.11 176.11 116.11 176.11 109.08 180.04 109.08 180.04 109.08"/>
  <polygon class="cls-12" points="182.48 109.08 184.19 113.89 184.21 113.89 184.21 109.08 185.51 109.08 185.51 116.11 183.9 116.11 182.16 111.18 182.15 111.18 182.15 116.11 180.84 116.11 180.84 109.08 182.48 109.08 182.48 109.08"/>
  <polygon class="cls-12" points="190.62 109.08 190.62 110.24 189.08 110.24 189.08 116.11 187.66 116.11 187.66 110.24 186.13 110.24 186.13 109.08 190.62 109.08 190.62 109.08"/>
  <path class="cls-12" d="m192.65,112.15h.59c.68,0,1.06-.3,1.06-1.05,0-.65-.35-.98-.99-.98h-.67v2.03h0Zm-1.42-3.07h2.62c1.16,0,1.87.61,1.87,1.81,0,.94-.37,1.57-1.17,1.73v.02c.97.13,1.11.66,1.13,2.15.01.74.05,1.12.31,1.26v.06h-1.54c-.14-.2-.17-.46-.18-.74l-.04-1.35c-.02-.55-.27-.89-.84-.89h-.76v2.98h-1.42v-7.04h0Z"/>
  <polygon class="cls-12" points="200.64 109.08 200.64 110.24 198.13 110.24 198.13 111.89 200.49 111.89 200.49 113.06 198.13 113.06 198.13 114.95 200.74 114.95 200.74 116.11 196.71 116.11 196.71 109.08 200.64 109.08 200.64 109.08"/>
  <polygon class="cls-12" points="204.86 109.08 205.86 114.28 205.89 114.28 206.93 109.08 208.4 109.08 206.79 116.11 204.96 116.11 203.35 109.08 204.86 109.08 204.86 109.08"/>
  <path class="cls-12" d="m210.12,113.46h1.38l-.68-3.16h-.02l-.68,3.16h0Zm-.19-4.38h1.75l1.86,7.04h-1.48l-.32-1.49h-1.87l-.33,1.49h-1.48l1.86-7.04h0Z"/>
  <polygon class="cls-12" points="214.04 116.11 214.04 109.08 215.46 109.08 215.46 114.95 217.97 114.95 217.97 116.11 214.04 116.11 214.04 116.11"/>
  <path class="cls-12" d="m222.45,115.07h.63c.99,0,1.18-.62,1.18-2.53,0-1.6-.13-2.41-1.21-2.41h-.6v4.95h0Zm-1.42-5.99h2.33c1.97,0,2.33,1.35,2.33,3.42,0,2.49-.53,3.62-2.41,3.62h-2.24v-7.04h0Z"/>
  <polygon class="cls-12" points="230.55 109.08 230.55 110.24 228.04 110.24 228.04 111.89 230.4 111.89 230.4 113.06 228.04 113.06 228.04 114.95 230.65 114.95 230.65 116.11 226.62 116.11 226.62 109.08 230.55 109.08 230.55 109.08"/>
  <polygon class="cls-12" points="233.72 116.11 233.72 109.08 235.14 109.08 235.14 114.95 237.65 114.95 237.65 116.11 233.72 116.11 233.72 116.11"/>
  <path class="cls-12" d="m240.53,115.2c.84,0,.98-.72.98-2.61s-.14-2.61-.98-2.61-.98.73-.98,2.61.14,2.61.98,2.61h0Zm0-6.27c2.13,0,2.39,1.52,2.39,3.65s-.27,3.66-2.39,3.66-2.39-1.52-2.39-3.66.27-3.65,2.39-3.65h0Z"/>
  <polygon class="cls-12" points="243.83 116.11 243.83 109.08 245.25 109.08 245.25 116.11 243.83 116.11 243.83 116.11"/>
  <path class="cls-12" d="m247.72,112.15h.59c.68,0,1.06-.3,1.06-1.05,0-.65-.35-.98-.99-.98h-.67v2.03h0Zm-1.42-3.07h2.62c1.16,0,1.87.61,1.87,1.81,0,.94-.37,1.57-1.17,1.73v.02c.97.13,1.11.66,1.13,2.15.01.74.05,1.12.32,1.26v.06h-1.54c-.14-.2-.17-.46-.18-.74l-.04-1.35c-.02-.55-.27-.89-.84-.89h-.76v2.98h-1.42v-7.04h0Z"/>
  <polygon class="cls-12" points="255.71 109.08 255.71 110.24 253.2 110.24 253.2 111.89 255.56 111.89 255.56 113.06 253.2 113.06 253.2 114.95 255.81 114.95 255.81 116.11 251.78 116.11 251.78 109.08 255.71 109.08 255.71 109.08"/>
</svg>
